<svg xmlns="http://www.w3.org/2000/svg" width="120" height="120" viewBox="0 0 120 120">
  <title>Heards Holy Water emblem</title>
  <g fill="none" fill-rule="evenodd">
    <circle cx="44" cy="44" r="40" stroke="#2f3a47" stroke-width="3" />
    <path fill="#2f3a47" d="M43.969 12l6.506 18.84 19.885.292-16.002 11.49 6.07 18.997-16.459-11.764-16.46 11.764 6.07-18.997-16.002-11.49 19.885-.292z"/>
    <path stroke="#2f3a47" stroke-width="3" stroke-linecap="round" stroke-linejoin="round" d="M25.5 67.5c8.5-6 14-13 16.5-21.5M14 56c7 1 12.667-.333 16-4"/>
    <g transform="translate(57 54)">
      <path d="M17.5 0C11.149.276 6.13 4.78 2.443 13.512c-.546 1.286-.973 3.053-1.28 5.3-.308 2.247-.089 4.494.656 6.742.745 2.247 2.169 4.313 4.271 6.198 2.102 1.885 4.563 3.166 7.383 3.843 2.82-.677 5.28-1.958 7.382-3.843 2.102-1.885 3.526-3.951 4.271-6.198.745-2.248.964-4.495.656-6.742-.307-2.247-.734-4.014-1.28-5.3C28.87 4.78 23.851.276 17.5 0Z" stroke="#2f3a47" stroke-width="3" fill="#fff"/>
      <path d="M17.5 6.5c-2.65 1.96-4.308 4.593-4.975 7.9-.667 3.306-.2 6.54 1.4 9.7" stroke="#2f3a47" stroke-width="2" stroke-linecap="round"/>
      <path d="M17.5 6.5c2.65 1.96 4.308 4.593 4.975 7.9.667 3.306.2 6.54-1.4 9.7" stroke="#2f3a47" stroke-width="2" stroke-linecap="round"/>
      <path d="M17.5 6.5c-1.56 5.026-1.56 9.893 0 14.6" stroke="#2f3a47" stroke-width="2" stroke-linecap="round"/>
      <path d="M11.5 11.5c1.667 1.2 3.733 1.8 6.2 1.8" stroke="#2f3a47" stroke-width="2" stroke-linecap="round"/>
      <path d="M23.5 11.5c-1.667 1.2-3.733 1.8-6.2 1.8" stroke="#2f3a47" stroke-width="2" stroke-linecap="round"/>
    </g>
  </g>
</svg>
